<svg xmlns="http://www.w3.org/2000/svg" width="540" height="540">
  <desc>Цветовой круг с чередующимися цветами
https://ru.wikipedia.org/wiki/%D0%A6%D0%B2%D0%B5%D1%82%D0%BE%D0%B2%D0%BE%D0%B9_%D0%BA%D1%80%D1%83%D0%B3
  </desc>
  <path d="M511.481 205.295c11.906 44.433 11.906 84.977 0 129.41l-29.648 15.312L270 270l214.5-77.586z" fill="red"/>
  <path d="M334.705 28.519c44.432 11.905 79.545 32.177 112.072 64.704l-.59 25.48L270 270l45.55-231.623z" fill="#ff0"/>
  <path d="M446.777 93.223c32.527 32.527 52.799 67.64 64.704 112.072L270 270z" fill="#ff8000"/>
  <path d="M93.223 93.223c32.527-32.527 67.64-52.799 112.072-64.704l24.2 13.687L270 270 92.74 118.843z" fill="#0f0"/>
  <path d="M205.295 28.519c44.433-11.906 84.977-11.906 129.41 0L270 270z" fill="#80ff00"/>
  <path d="M28.519 334.705c-11.906-44.433-11.906-84.977 0-129.41l24.939-14.489L270 270 51.403 345.454z" fill="#0ff"/>
  <path d="M28.519 205.295c11.905-44.432 32.177-79.545 64.704-112.072L270 270z" fill="#00ff80"/>
  <path d="M205.295 511.481c-44.432-11.905-79.545-32.177-112.072-64.704l2.692-33.652L270 270l-40.296 228.784z" fill="#00f"/>
  <path d="M93.223 446.777c-32.527-32.527-52.799-67.64-64.704-112.072L270 270z" fill="#0080ff"/>
  <path d="M446.777 446.777c-32.527 32.527-67.64 52.799-112.072 64.704l-23.119-14.464L270 270l174.529 150.853z" fill="#f0f"/>
  <path d="M334.705 511.481c-44.433 11.906-84.977 11.906-129.41 0L270 270z" fill="#8000ff"/>
  <path d="M511.481 334.705c-11.905 44.432-32.177 79.545-64.704 112.072L270 270l241.481 64.705z" fill="#ff0080"/>
  <circle cx="270" cy="270" r="153.796" fill="#fff"/>
</svg>
