<svg xmlns="http://www.w3.org/2000/svg" version="1.0" width="340" height="340">
  <path d="M340 170c0-15.23-1.993-30.001-5.755-44.05l-35.023-10.374-19.873 24.984c2.537 9.416 3.984 19.225 3.984 29.44s-1.447 20.024-3.984 29.44l18.463 28.208 36.433-13.599C338.007 200.001 340 185.23 340 170z" color="#000" fill="#ea621f"/>
  <path d="M0 170c0 15.23 1.993 30.001 5.755 44.05l33.612 10.64 21.284-25.25c-2.538-9.416-3.984-19.225-3.984-29.44s1.446-20.024 3.984-29.44l-21.444-22.903-33.452 8.294C1.993 139.999 0 154.77 0 170z" color="#000" fill="#0696bb"/>
  <path d="M255 22.776C241.81 15.16 228.022 9.5 213.974 5.736l-25.022 21.708 10.227 33.137c9.423 2.51 18.641 6.162 27.488 11.27 8.846 5.107 16.617 11.264 23.503 18.17l31.78-8.361 8.32-31.875C279.985 39.502 268.19 30.39 255 22.775z" color="#000" fill="#fdc60b"/>
  <path d="M85 317.224c13.19 7.615 26.978 13.275 41.025 17.04l29.762-22.588-14.966-32.257c-9.423-2.51-18.642-6.162-27.488-11.27-8.846-5.107-16.617-11.264-23.503-18.17l-33.227 6.916-6.873 33.32c10.285 10.283 22.08 19.395 35.27 27.01z" color="#000" fill="#444e99"/>
  <path d="M85 22.776C71.81 30.39 60.015 39.502 49.73 49.785l6.465 34.14 33.635 6.096c6.886-6.906 14.657-13.063 23.503-18.17 8.846-5.108 18.065-8.76 27.488-11.27l13.084-32.005-27.88-22.84C111.978 9.5 98.19 15.16 85 22.775z" color="#000" fill="#8cbb26"/>
  <path d="M255 317.224c13.19-7.614 24.985-16.726 35.27-27.009l-6.054-36.2-34.046-4.036c-6.886 6.906-14.657 13.063-23.503 18.17-8.847 5.108-18.065 8.76-27.488 11.27l-9.664 32.874 24.46 21.972c14.047-3.766 27.836-9.426 41.025-17.04z" color="#000" fill="#c4037d"/>
  <path d="M71.85 226.667l97.532-35.443 98.767 35.443L170 283.333zM170 340c15.23 0 30.001-1.993 44.05-5.755l-14.61-54.896c-9.416 2.537-19.225 3.984-29.44 3.984s-20.024-1.447-29.44-3.984l-14.61 54.896C140 338.007 154.77 340 170 340z" color="#000" fill="#6d398b"/>
  <path d="M170 56.667l-23.249 100.436-74.9 69.564V113.333zM22.776 85C15.16 98.19 9.5 111.978 5.735 126.026l54.846 14.795c2.51-9.423 6.162-18.641 11.27-27.488 5.107-8.846 11.264-16.617 18.17-23.503l-40.236-40.1C39.502 60.015 30.39 71.81 22.775 85z" color="#000" fill="#008e5b"/>
  <path d="M268.15 226.667l-77.497-67.908L170 56.667l98.15 56.666zM317.223 85c-7.614-13.19-16.727-24.985-27.009-35.27l-40.236 40.1c6.906 6.886 13.063 14.657 18.17 23.503 5.108 8.847 8.76 18.065 11.27 27.488l54.846-14.795c-3.766-14.048-9.426-27.837-17.04-41.026z" color="#000" fill="#f18e1c"/>
  <path d="M198.848 153.103L170 226.667H71.85l49.075-85zM22.776 255c7.614 13.19 16.726 24.985 27.009 35.27l40.236-40.1c-6.906-6.886-13.063-14.657-18.17-23.503-5.108-8.846-8.76-18.065-11.27-27.488L5.735 213.974c3.766 14.048 9.426 27.837 17.04 41.026z" color="#000" fill="#2a71b0"/>
  <path d="M170 170l12.123-36.01 36.952 7.677 49.074 85H170zm147.224 85c7.615-13.19 13.275-26.978 17.04-41.026L279.42 199.18c-2.51 9.423-6.162 18.641-11.27 27.488-5.107 8.846-11.264 16.617-18.17 23.503l40.236 40.1c10.282-10.285 19.395-22.08 27.01-35.27z" color="#000" fill="#e32322"/>
  <path d="M170 170l-49.075-28.333 49.075-85 49.075 85L170 170zm0-170c-15.23 0-30.001 1.993-44.05 5.755l14.61 54.896c9.416-2.537 19.225-3.984 29.44-3.984s20.024 1.447 29.44 3.984l14.61-54.896C200 1.993 185.23 0 170 0z" color="#000" fill="#f4e500"/>
</svg>
