<svg id="vv-itten-primary-wheel" xmlns="http://www.w3.org/2000/svg" viewBox="0 0 512 512">
  <path fill="#2a71b0" d="M300 230l-44 112H108l74-128zM34.3 384c11.5 20 25.2 38 40.7 53l61-61c-11-10-20-21-28-34-8-14-13-27-16.7-42L8.64 322c5.66 21 14.26 42 25.66 62z"/>
  <path fill="#e32322" d="M256 256l18-54 56 12 74 128H256zm221 128c12-20 20-41 26-62l-83-22c-3 15-9 28-16 42-8 13-17 24-28 34l61 61c15-15 30-33 40-53z"/>
  <path fill="#f4e500" d="M256 256l-74-42 74-128.2L330 214zm0-256c-23 0-45 3.01-66 9.04l22 82.86c14-4.6 29-6.1 44-6.1s30 1.5 44 6.1l22-82.86C301 3.01 279 0 256 0z"/>
</svg>
