<svg id="vv-itten-tertiary-wheel" xmlns="http://www.w3.org/2000/svg" viewBox="0 0 512 512">
  <path fill="#ea621f" d="M512 256c0-23-3-45-9-66l-53-15-30 37c5 14 6 29 6 44s-1 30-6 44l29 43 54-21c6-21 9-43 9-66z"/>
  <path fill="#0696bb" d="M0 256c0 23 3 45 8.66 66l50.64 17 32.1-39c-3.9-14-6-29-6-44s2.1-30 6-44L59 178 8.67 190C3 211 0 233 0 256z"/>
  <path fill="#fdc60b" d="M384 34.6c-20-12-41-19.5-62-25.56L285 40.7l15 51.2c15 3 28 9.1 42 16.1 13 8 24 17 34 28l49-13 12-47.7c-15-15.1-33-30.1-53-40.7z"/>
  <path fill="#444e99" d="M128 477c20 12 41 20 62 26l45-33-23-50c-15-3-28-9-42-16-13-8-24-17-35-28l-49.8 11-10.4 50c15.6 15 33.2 30 53.2 40z"/>
  <path fill="#8cbb26" d="M128 34.6c-20 10.6-37.6 25.6-53.2 40.7l9.8 50.7 50.4 10c11-11 22-20 35-28 14-7 27-13.1 42-16.1l20-48.2-42-34.66c-21 6.06-42 13.56-62 25.56z"/>
  <path fill="#c4037d" d="M384 477c20-10 38-25 53-40l-9-55-52-6c-10 11-21 20-34 28-14 7-27 13-42 16l-14 50 36 33c21-6 42-14 62-26z"/>
</svg>
