<svg id="vv-itten-secondary-wheel" xmlns="http://www.w3.org/2000/svg" viewBox="0 0 512 512">
  <path fill="#f18e1c" d="M404 342L288 239 256 85.8 404 170zm73-214c-10-20-25-37.6-40-52.7L376 136c11 10 20 21 28 34 7 14 13 27 16 42l83-22c-6-21-14-42-26-62z"/>
  <path fill="#008e5b" d="M256 85.8L221 236 108 342V170zM34.3 128c-11.4 20-20 41-25.66 62l82.66 22c3.7-15 8.7-28 16.7-42 8-13 17-24 28-34L75 75.3C59.5 90.4 45.8 108 34.3 128z"/>
  <path fill="#6d398b" d="M108 342l146-54 150 54-148 84zm148 170c23 0 45-3 66-9l-22-83c-14 5-29 6-44 6s-30-1-44-6l-22 83c21 6 43 9 66 9z"/>
</svg>
