<svg id="w3c-basic-color" viewBox="0 0 512 512" xmlns="http://www.w3.org/2000/svg" font-family="'Noto Sans'">
  <rect fill="#000000" x="10" y="0" width="88" height="28"/>
  <rect fill="#000000" x="100" y="0" width="88" height="28"/>
  <rect fill="#000000" x="190" y="0" width="108" height="28"/>
  <rect fill="#000000" x="300" y="0" width="98" height="28"/>
  <rect fill="#000000" x="400" y="0" width="100" height="28"/>

  <rect fill="#000000" x="10" y="30" width="88" height="28"/>
  <rect fill="#000000" x="100" y="30" width="88" height="28"/>
  <rect fill="#FFFFFF" x="190" y="30" width="108" height="28"/>
  <rect fill="#C0C0C0" x="300" y="30" width="98" height="28"/>
  <rect fill="#C0C0C0" x="400" y="30" width="100" height="28"/>

  <rect fill="#C0C0C0" x="10" y="60" width="88" height="28"/>
  <rect fill="#C0C0C0" x="100" y="60" width="88" height="28"/>
  <rect fill="#FFFFFF" x="190" y="60" width="108" height="28"/>
  <rect fill="#C0C0C0" x="300" y="60" width="98" height="28"/>
  <rect fill="#C0C0C0" x="400" y="60" width="100" height="28"/>

  <rect fill="#808080" x="10" y="90" width="88" height="28"/>
  <rect fill="#808080" x="100" y="90" width="88" height="28"/>
  <rect fill="#FFFFFF" x="190" y="90" width="108" height="28"/>
  <rect fill="#C0C0C0" x="300" y="90" width="98" height="28"/>``
  <rect fill="#C0C0C0" x="400" y="90" width="100" height="28"/>

  <rect fill="#FFFFFF" x="10" y="120" width="88" height="28"/>
  <rect fill="#FFFFFF" x="100" y="120" width="88" height="28"/>
  <rect fill="#FFFFFF" x="190" y="120" width="108" height="28"/>
  <rect fill="#C0C0C0" x="300" y="120" width="98" height="28"/>
  <rect fill="#C0C0C0" x="400" y="120" width="100" height="28"/>

  <rect fill="#800000" x="10" y="150" width="88" height="28"/>
  <rect fill="#800000" x="100" y="150" width="88" height="28"/>
  <rect fill="#FFFFFF" x="190" y="150" width="108" height="28"/>
  <rect fill="#C0C0C0" x="300" y="150" width="98" height="28"/>
  <rect fill="#C0C0C0" x="400" y="150" width="100" height="28"/>

  <rect fill="#FF0000" x="10" y="180" width="88" height="28"/>
  <rect fill="#FF0000" x="100" y="180" width="88" height="28"/>
  <rect fill="#FFFFFF" x="190" y="180" width="108" height="28"/>
  <rect fill="#C0C0C0" x="300" y="180" width="98" height="28"/>
  <rect fill="#C0C0C0" x="400" y="180" width="100" height="28"/>

  <rect fill="#800080" x="10" y="210" width="88" height="28"/>
  <rect fill="#800080" x="100" y="210" width="88" height="28"/>
  <rect fill="#FFFFFF" x="190" y="210" width="108" height="28"/>
  <rect fill="#C0C0C0" x="300" y="210" width="98" height="28"/>
  <rect fill="#C0C0C0" x="400" y="210" width="100" height="28"/>

  <rect fill="#FF00FF" x="10" y="240" width="88" height="28"/>
  <rect fill="#FF00FF" x="100" y="240" width="88" height="28"/>
  <rect fill="#FFFFFF" x="190" y="240" width="108" height="28"/>
  <rect fill="#C0C0C0" x="300" y="240" width="98" height="28"/>
  <rect fill="#C0C0C0" x="400" y="240" width="100" height="28"/>

  <rect fill="#008000" x="10" y="270" width="88" height="28"/>
  <rect fill="#008000" x="100" y="270" width="88" height="28"/>
  <rect fill="#FFFFFF" x="190" y="270" width="108" height="28"/>
  <rect fill="#C0C0C0" x="300" y="270" width="98" height="28"/>
  <rect fill="#C0C0C0" x="400" y="270" width="100" height="28"/>

  <rect fill="#00FF00" x="10" y="300" width="88" height="28"/>
  <rect fill="#00FF00" x="100" y="300" width="88" height="28"/>
  <rect fill="#FFFFFF" x="190" y="300" width="108" height="28"/>
  <rect fill="#C0C0C0" x="300" y="300" width="98" height="28"/>
  <rect fill="#C0C0C0" x="400" y="300" width="100" height="28"/>

  <rect fill="#808000" x="10" y="330" width="88" height="28"/>
  <rect fill="#808000" x="100" y="330" width="88" height="28"/>
  <rect fill="#FFFFFF" x="190" y="330" width="108" height="28"/>
  <rect fill="#C0C0C0" x="300" y="330" width="98" height="28"/>
  <rect fill="#C0C0C0" x="400" y="330" width="100" height="28"/>

  <rect fill="#FFFF00" x="10" y="360" width="88" height="28"/>
  <rect fill="#FFFF00" x="100" y="360" width="88" height="28"/>
  <rect fill="#FFFFFF" x="190" y="360" width="108" height="28"/>
  <rect fill="#C0C0C0" x="300" y="360" width="98" height="28"/>
  <rect fill="#C0C0C0" x="400" y="360" width="100" height="28"/>

  <rect fill="#000080" x="10" y="390" width="88" height="28"/>
  <rect fill="#000080" x="100" y="390" width="88" height="28"/>
  <rect fill="#FFFFFF" x="190" y="390" width="108" height="28"/>
  <rect fill="#C0C0C0" x="300" y="390" width="98" height="28"/>
  <rect fill="#C0C0C0" x="400" y="390" width="100" height="28"/>

  <rect fill="#0000FF" x="10" y="420" width="88" height="28"/>
  <rect fill="#0000FF" x="100" y="420" width="88" height="28"/>
  <rect fill="#FFFFFF" x="190" y="420" width="108" height="28"/>
  <rect fill="#C0C0C0" x="300" y="420" width="98" height="28"/>
  <rect fill="#C0C0C0" x="400" y="420" width="100" height="28"/>

  <rect fill="#008080" x="10" y="450" width="88" height="28"/>
  <rect fill="#008080" x="100" y="450" width="88" height="28"/>
  <rect fill="#FFFFFF" x="190" y="450" width="108" height="28"/>
  <rect fill="#C0C0C0" x="300" y="450" width="98" height="28"/>
  <rect fill="#C0C0C0" x="400" y="450" width="100" height="28"/>

  <rect fill="#00FFFF" x="10" y="480" width="88" height="28"/>
  <rect fill="#00FFFF" x="100" y="480" width="88" height="28"/>
  <rect fill="#FFFFFF" x="190" y="480" width="108" height="28"/>
  <rect fill="#C0C0C0" x="300" y="480" width="98" height="28"/>
  <rect fill="#C0C0C0" x="400" y="480" width="100" height="28"/>

  <text font-size="16" text-anchor="middle" fill="#000000">
    <tspan x="54" y="18" fill="#ffffff">Named</tspan>
    <tspan x="144" y="18" fill="#ffffff">Numeric</tspan>
    <tspan x="244" y="18" fill="#ffffff">Color name</tspan>
    <tspan x="348" y="18" fill="#ffffff">Hex rgb</tspan>
    <tspan x="448" y="18" fill="#ffffff">Decimal</tspan>

    <tspan x="244" y="50" font-weight="bold" font-style="italic">black</tspan>
    <tspan x="348" y="50">#000000</tspan>
    <tspan x="448" y="50">0,0,0</tspan>

    <tspan x="244" y="80" font-weight="bold" font-style="italic">silver</tspan>
    <tspan x="348" y="80">#C0C0C0</tspan>
    <tspan x="448" y="80">192,192,192</tspan>

    <tspan x="244" y="110" font-weight="bold" font-style="italic">gray</tspan>
    <tspan x="348" y="110">#808080</tspan>
    <tspan x="448" y="110">128,128,128</tspan>

    <tspan x="244" y="140" font-weight="bold" font-style="italic">white</tspan>
    <tspan x="348" y="140">#ffffff</tspan>
    <tspan x="448" y="140">255,255,255</tspan>

    <tspan x="244" y="170" font-weight="bold" font-style="italic">maroon</tspan>
    <tspan x="348" y="170">#800000</tspan>
    <tspan x="448" y="170">128,0,0</tspan>

    <tspan x="244" y="200" font-weight="bold" font-style="italic">red</tspan>
    <tspan x="348" y="200">#FF0000</tspan>
    <tspan x="448" y="200">255,0,0</tspan>

    <tspan x="244" y="230" font-weight="bold" font-style="italic">purple</tspan>
    <tspan x="348" y="230">#800080</tspan>
    <tspan x="448" y="230">128,0,128</tspan>

    <tspan x="244" y="260" font-weight="bold" font-style="italic">fuchsia</tspan>
    <tspan x="348" y="260">#FF00FF</tspan>
    <tspan x="448" y="260">255,0,255</tspan>

    <tspan x="244" y="290" font-weight="bold" font-style="italic">green</tspan>
    <tspan x="348" y="290">#008000</tspan>
    <tspan x="448" y="290">0,128,0</tspan>

    <tspan x="244" y="320" font-weight="bold" font-style="italic">lime</tspan>
    <tspan x="348" y="320">#00FF00</tspan>
    <tspan x="448" y="320">0,255,0</tspan>

    <tspan x="244" y="350" font-weight="bold" font-style="italic">olive</tspan>
    <tspan x="348" y="350">#808000</tspan>
    <tspan x="448" y="350">128,128,0</tspan>

    <tspan x="244" y="380" font-weight="bold" font-style="italic">yellow</tspan>
    <tspan x="348" y="380">#FFFF00</tspan>
    <tspan x="448" y="380">255,255,0</tspan>

    <tspan x="244" y="410" font-weight="bold" font-style="italic">navy</tspan>
    <tspan x="348" y="410">#000080</tspan>
    <tspan x="448" y="410">0,0,128</tspan>

    <tspan x="244" y="440" font-weight="bold" font-style="italic">blue</tspan>
    <tspan x="348" y="440">#0000FF</tspan>
    <tspan x="448" y="440">0,0,255</tspan>

    <tspan x="244" y="470" font-weight="bold" font-style="italic">teal</tspan>
    <tspan x="348" y="470">#008080</tspan>
    <tspan x="448" y="470">0,128,128</tspan>

    <tspan x="244" y="500" font-weight="bold" font-style="italic">aqua</tspan>
    <tspan x="348" y="500">#00FFFF</tspan>
    <tspan x="448" y="500">0,255,255</tspan>
  </text>
  <!-- <rect x="0" y="0" width="510" height="510" fill="none" stroke="#CC0F16" stroke-width="2"/> -->
</svg>
