<svg viewBox="0 0 512 512" xmlns="http://www.w3.org/2000/svg">
  <defs>
    <path
      id="vv-fox"
      d="M2 4 C6 8 10 12 15 11 A6 6 0 0 1 22 4 A6 6 0 0 1 26 6 A8 8 0 0 0 31 4 A8 8 0 0 1 28 8 A8 8 0 0 0 32 7 A8 8 0 0 1 28 11 A18 18 0 0 1 10 30 A18 18 0 0 1 0 27 A12 12 0 0 0 8 24 A8 8 0 0 1 3 20 A8 8 0 0 0 6 19.5 A8 8 0 0 1 0 12 A8 8 0 0 0 3 13 A8 8 0 0 1 2 4"></path>
  </defs>
  <text x="10" y="30">
    Простая палитра цветов для веб-разработки.
    <tspan x="10" y="60">
      <a href="http://clrs.cc/" target="_blank">
        COLORS A nicer color palette for the web.
      </a>
    </tspan>
  </text>

  <use href="#vv-fox" x="5" y="80" fill="navy"/>
  <use href="#vv-fox" x="50" y="80" fill="blue"/>
  <use href="#vv-fox" x="95" y="80" fill="aqua"/>
  <use href="#vv-fox" x="140" y="80" fill="teal"/>
  <use href="#vv-fox" x="185" y="80" fill="olive"/>

  <use href="#vv-fox" x="5" y="140" fill="green"/>
  <use href="#vv-fox" x="50" y="140" fill="lime"/>
  <use href="#vv-fox" x="95" y="140" fill="yellow"/>
  <use href="#vv-fox" x="140" y="140" fill="orange"/>
  <use href="#vv-fox" x="185" y="140" fill="red"/>

  <use href="#vv-fox" x="5" y="200" fill="maroon"/>
  <use href="#vv-fox" x="50" y="200" fill="fuchsia"/>
  <use href="#vv-fox" x="95" y="200" fill="purple"/>
  <use href="#vv-fox" x="140" y="200" fill="black"/>
  <use href="#vv-fox" x="185" y="200" fill="gray"/>

  <rect x="0" y="0" width="510" height="510" fill="none" stroke="#CC0F16" stroke-width="2"/>
</svg>
