<svg id="vb_buh" xmlns="http://www.w3.org/2000/svg" viewBox="0 0 512 512" fill="#42a5f5">
  <path d="M37 342h439v17H37z"/>
  <path d="M34 152h442v17H34z"/>
  <path
    d="M256 0c71 0 135 29 181 75s75 110 75 181-29 135-75 181-110 75-181 75-135-29-181-75S0 327 0 256 29 121 75 75 185 0 256 0zm160 96c-41-41-98-66-160-66S137 55 96 96s-66 98-66 160 25 119 66 160 98 66 160 66 119-25 160-66 66-98 66-160-25-119-66-160z"/>
  <g fill="#ff7043">
    <path d="M349 423c15-8 25-22 30-36 8-28 8-49 0-77-5-15-16-29-31-37-5-3-17-2-23 1-11 7-24 19-29 36-9 29-8 48 0 77 5 17 18 29 29 36 5 3 20 3 24 0z"/>
    <path d="M347 97L189 431l-26-12L321 84z"/>
    <path d="M194 230c14-9 25-22 29-37 8-27 8-48 0-76-4-15-16-29-31-37-5-3-17-2-22 1-11 6-24 19-30 36-9 28-8 48 0 76 5 18 18 30 29 37 6 3 20 3 25 0z"/>
  </g>
  <path
    fill="snow"
    d="M186 171c5-3 9-9 10-16 3-12 3-22 0-34-2-7-5-13-11-17-1-1-5-1-7 0-4 3-8 9-10 17-3 12-3 21 0 34 1 8 6 14 10 16 1 2 6 2 8 0zM341 365c5-4 9-10 10-16 3-13 3-22 0-35-1-7-5-13-10-17-2-1-6-1-8 1-4 3-8 8-10 16-3 13-3 22 0 35 2 8 6 13 10 16 2 1 7 1 8 0z"/>
</svg>
