<svg id="vb_flower" xmlns="http://www.w3.org/2000/svg" viewBox="0 0 376 513">
  <path
    fill="#ffd180"
    fill-rule="evenodd"
    d="M277 99c87-44 116-4 22 38 105 5 100 55 0 48 87 55 59 96-22 35 49 82 8 121-41 25 0 100-47 100-45 0-53 86-98 59-42-23-78 59-110 7-20-41-95 9-100-41 1-45-87-45-65-89 23-42-51-81-4-107 41-20-4-98 47-100 45 2 45-86 86-61 38 23zm-42-9c38 10 62 52 51 91-11 38-52 60-91 50-38-12-61-53-50-91 11-37 52-62 90-50z"/>
  <path
    fill="#42a5f5"
    d="M100 451s-30 16-53-2c-23-20-64-79-39-158 3-6 7-9 13-9 0 0 29 0 72 27 41 28 51 84 47 95-4 10-2 22-24 38 9 21 27 45 31 53 2 4 6 6 18-18 8-21 24-59 35-139 7-11 18-3 18 0l-2 17s-18 96-41 137c1 3 4 3 6 3 3-2 31-22 31-22s-10-27 5-50 50-46 106-36c3 1 2 1 3 1 3 0 6 4 6 7 2 14-11 47-16 57-7 12-25 44-75 40-18-1-23-10-23-10l-38 31h-44l-36-62z"/>
  <circle fill="#ff7043" cx="216" cy="160" r="49"/>
</svg>
