<svg id="vb_manag-acc" xmlns="http://www.w3.org/2000/svg" viewBox="0 0 512 512">
  <g fill="#adb5bd">
  <path fill="#ff7043" d="M248 193h15.5v42.3H248z"/>
  <path d="M243 178h26l-13 37z" fill="#ff7043"/>
  <ellipse ry="66" rx="50" cy="102" cx="256" fill="#ffd180"/>
  <path d="M373.32 232c.43 43-53.12 88-117.12 88-65 0-116.45-45-116.88-88-.35-35 34.36-64 80.27-73l36.77 77 36.23-77c46.1 10 80.39 39 80.73 73z" fill="#42a5f5"/>
    <path d="M119 280c40 45 88 70 137 70s97-25 137-70" fill="none" stroke="#adb5bd" stroke-width="24"/>
    <circle r="35" cy="340" cx="71"/>
    <circle r="35" cy="427" cx="255"/>
    <circle r="35" cy="340" cx="443"/>
    <path d="M245 359h23.3v35.7H245zM119.132 280.112l15.009 17.823-41.46 34.912-15.007-17.823zM393.017 280.005L378.01 297.83l41.463 34.905 15.006-17.825z"/>
  </g>
</svg>
