<svg id="vb_reporting" xmlns="http://www.w3.org/2000/svg"
viewBox="0 0 512 512" fill="#42a5f5" >
   <path d="M241 266l147 152 -10 10c-20,19 -44,35 -69,45 -26,10 -54,16 -82,16 -60,0 -114,-24 -153,-64 -40,-39 -64,-93 -64,-153 0,-60 24,-115 64,-154 39,-39 93,-64 153,-64l14 0 0 212zm107 151l-135 -140 0 -194c-46,4 -88,24 -119,55 -35,34 -56,81 -56,134 0,52 21,99 56,133 34,34 81,56 133,56 25,0 49,-5 71,-14 18,-7 35,-18 50,-30z"/>
   <path fill="#ff7043" d="M264 227l0 -217 15 0c60,0 114,24 153,64 40,39 64,93 64,153l0 14 -232 0 0 -14zm29 -188l0 174 174 0c-3,-46 -24,-88 -55,-119 -31,-31 -73,-52 -119,-55z"/>
   <path fill="#ffd180" d="M344 293l93 93c11,-14 20,-28 26,-44 7,-15 11,-32 12,-49l-131 0zm83 123l-151 -151 228 0 0 14c0,25 -5,51 -15,74 -10,23 -24,45 -42,63l-10 10 -10 -10z"/>
</svg>
