<svg id="foxVikalogo" xmlns="http://www.w3.org/2000/svg"
  width="512" height="512" viewBox="0 0 512 512" fill-rule="evenodd" fill="#f60" stroke="none">
  <path id="foxHead" d="M204 291s-5 37 15 67 a100 100 0 0 1-1-26 c1-18 14-31 29-36 24-7 47-1 67 8 38 16 70 50 103 64 a74 74 0 0 0 36 4 l5-7 c-45 -29-47-94-67-134-11-20-30-37-51-46-45-17-92-11-128 15-15 11-28 26-35 44-9 23-6 50 0 74 a268 268 0 0 0 28 67 s-23-72-2-95z" />
  <path id="foxBody" d="M 119,509 C -102,391 59,225 59,225 59,225 -54,385 119,509 Z" />
  <path id="chin" d="M299 452 c-91-51-45-122 37-66 13 9 27 15 41 20 20 7 41 10 62 8 a138 138 0 0 0 46-12 201 201 0 0 1-33 4 c-19.128.527-38-2-57-8-18-6-35-17-51-28-31-22-64-41-97-22-52 42 2 84 40 106 29 16 58 36 78 58-17-26-43-44-67-60 z" />
  <path id="foxEarLeft" d="M350 169 s-11-15-57-10 c0 0 77-46 141-115 0 0-10 51-85 125" />
  <path d="M143 365 c-13-21-25-42-31-66-6-24-8-49-1-72 8-29 28-53 51-71 23-18 50-31 75-48 25-17 47-38 67-61 A471 471 0 0 0 337 3 a343 343 0 0 1-31 94 317 317 0 0 1-12 20 c-7 13-15 23-27 30-10 6-22 8-34 12-20 6-40 15-56 28-16 13-29 31-36 51-9 28-5 58 4 86 19 63 59 118 112 156-46-30-85-69-115-115 z" />
  <path id="foxYeys" d="M351 254 s20 52 36 28c-1-6.-36-28-36-28z" fill="snow" />
  <path id="foxNose" d="M459 365 s27 16 50 19 c0 0-47 35-55-12 z" fill="black" />
</svg>
