<svg xmlns="http://www.w3.org/2000/svg" xmlns:xlink="http://www.w3.org/1999/xlink" viewBox="0 0 512 512">
  <path d="M255 415s19 21 3 59c0 0-11 19-31 21-43 10-36-68-36-68s0-5 4-3c0 0 17 13 13 48 0 0 1 21 41-3 0 0 15-23 2-53 0 0-2-5 4-1" />
  <g>
    <path d="M119 13.1s36-3.17 64 43.8c0 0 30 65.1 18 81.1 0 0-7 2-10-10 0 0-41-98.5-73-94.3 0 0-42.2-2.6-67.1 83.3 0 0-7.5 21 23 13 0 0 57.1-12 90.1 15 0 0 6 7-5 14 0 0-20-28-70.4-9 0 0-42.4 6-52.6-12 0 0-22.4-37 20.9-96.5 0 0 27.5-24.5 62.1-28.4M279 153l-1-6s10-9 11-28c0 0 8-30.4 26-42.2 0 0 64-44.9 115-46.2 0 0 42 3.6 50 36.5 0 0 12 65.9-5 91.9 0 0-5 23-38 29 0 0-41 7-49-7 0 0-15-15-22-24 0 0-13-9-45 1 0 0-10-4 0-10 0 0 28-18 52-1l27 15s26 26 43-2c45-63.5 26-115.3-44-106.2 0 0-75 10.2-97 73.2 0 0-3 24-23 26"/>
    <ellipse cx="279" cy="207" rx="20.5" ry="20.8" />
    <ellipse cx="51.6" cy="286" rx="21.7" ry="18" transform="rotate(-36.39) skewX(-1.72)" />
    <ellipse cx="231" cy="325" rx="34.6" ry="22.4" />
    <path d="M121 348c0 26 22 47 49 47 28 0 50-21 50-48h9c-2 32-28 57-60 57-33 0-60-27-60-61 0-23 12-42 30-53l9 16c-16 8-27 24-27 42z" stroke-width="1.062" />
    <path d="M313 307c16 8 27 24 27 42 0 26-22 47-50 47-27 0-50-23-50-49h-7c1 33 28 59 60 59 33 0 60-27 60-61 0-25-14-46-35-55z"  />
    <path d="M135 190c-11 10-20 14-30 24-5 5-10 10-10 16 .1 4 12 0 15 0 33 5-1 31-2 46l-15.8 1c-.6-2-1.4-3-.9-5 .1-10 20.7-25 20.7-30-3-8-35.3-5-6-5-7.3 0-19.9 1-26 0-10.8-4 10.9-28 15-33 10-7 17-16 27-22 8 0 13 5 13 8zM337 185c11 6 27 13 31 22 1 2 2 4 2 6-3 9-13 9-16 12-2 1-3 2-1 5 10 17 17 9 15 24 0 1-1 11-2 11-7 4-18-1-27-2 8-2 14-1 18-5 4-9-15-18-15-31 0-3 3-4 5-5 3-1 6-1 8-3 3-1 5-7 3-9-2-4-28-22-32-23zM235 432c0 9-4 12-9 12l-1-27c5 0 10 6 10 15z" stroke-width="1.062" />
  </g>
</svg>
