<svg xmlns="http://www.w3.org/2000/svg" xmlns:xlink="http://www.w3.org/1999/xlink" viewBox="0 0 512 512">
<g stroke="#000">
  <path stroke-width="14" fill="snow" d="M503 289c0 12 2 48-1 59-1 7-43 3-46 10-6 14-15 27-27 34-14 20-32 30-51 40-13 10 2 70-13 70h-46c-12 0-4-50-12-50h-92c-8 0-4 50-11 50h-46c-10-10-1-70-10-70-16-10-30-20-42-30-30.6-22-45-59-45-99 0-88 91-159 203-159 29 0 56 5 81 13 16 6 66-28 80-19 12 7-11 57-1 67 20 21 35 45 40 72 2 9 39 3 39 12z"/>
  <path d="M335 152c-35 83 64 120 90 60" fill="none" stroke-width="12"/>
  <circle fill="#fff" stroke-width="14" cx="230" cy="107" r="93"/>
  <text font-size="108" font-weight="700" font-family="'Noto Serif'" y="144" x="202">
    Ꝑ
  </text>
  <path d="M60 282c-15.4 1-44.6 4-48.5-14-4.59-24 24.8-25 33.5-11 4.5 5 5.6 13 5 20-3.4 28-16.4 33-43.96 27" fill="none" stroke-width="7" stroke-linecap="round"/>
  <path d="M385 272h1c1 1 1 1 1 2 1 1 3 3 4 5 2 3 5 8 8 11 2 1 3 2 4 3h3c3-1 5-3 7-5 6-6 10-12 12-11 1 1 1 8-6 17-1 3-4 6-9 8-3 1-5 1-8 1-1 0-2-1-2-1-4-1-6-3-8-5-4-6-6-12-7-16-1-2-1-5-1-6v-2s0-1 1-1z"/>
  <path d="M165 218s75-35 130 0" fill="none" stroke-width="18" stroke-linecap="round"/>
</g>
</svg>
